<svg width="686" height="299" viewBox="0 0 686 299" fill="none" xmlns="http://www.w3.org/2000/svg">
<path d="M59.62 214.52H45.94L28.3 183.32V239H9.82V155H31.42L52.78 192.92L74.14 155H95.74V239H77.26V183.32L59.62 214.52Z" fill="#0023FC"/>
<path d="M143.054 223.52C146.214 223.52 149.054 222.74 151.574 221.18C154.094 219.58 155.974 217.46 157.214 214.82V201.08C155.974 198.44 154.074 196.32 151.514 194.72C148.994 193.12 146.174 192.32 143.054 192.32C138.614 192.32 134.894 193.82 131.894 196.82C128.894 199.82 127.394 203.52 127.394 207.92C127.394 212.32 128.894 216.02 131.894 219.02C134.894 222.02 138.614 223.52 143.054 223.52ZM157.214 239V233.24C154.814 235.52 151.974 237.3 148.694 238.58C145.454 239.82 142.054 240.44 138.494 240.44C132.854 240.44 127.714 239 123.074 236.12C118.434 233.2 114.794 229.26 112.154 224.3C109.554 219.3 108.254 213.84 108.254 207.92C108.254 202 109.554 196.56 112.154 191.6C114.794 186.6 118.434 182.66 123.074 179.78C127.714 176.86 132.854 175.4 138.494 175.4C142.054 175.4 145.454 176.04 148.694 177.32C151.974 178.56 154.814 180.32 157.214 182.6V176.84H176.174V239H157.214Z" fill="#0023FC"/>
<path d="M191.315 239V176.84H210.635V239H191.315ZM193.115 168.08C190.995 166.04 189.935 163.54 189.935 160.58C189.935 157.62 190.995 155.14 193.115 153.14C195.235 151.1 197.855 150.08 200.975 150.08C204.095 150.08 206.715 151.1 208.835 153.14C210.955 155.14 212.015 157.62 212.015 160.58C212.015 163.54 210.955 166.04 208.835 168.08C206.715 170.08 204.095 171.08 200.975 171.08C197.855 171.08 195.235 170.08 193.115 168.08Z" fill="#0023FC"/>
<path d="M221.566 230.12L230.386 218.72C232.346 220.88 234.686 222.6 237.406 223.88C240.126 225.16 242.966 225.8 245.926 225.8C248.286 225.8 250.126 225.36 251.446 224.48C252.806 223.56 253.486 222.34 253.486 220.82C253.486 219.26 252.766 217.98 251.326 216.98C249.886 215.94 247.426 215.06 243.946 214.34C237.426 212.98 232.446 210.56 229.006 207.08C225.566 203.6 223.846 199.26 223.846 194.06C223.846 188.62 225.986 184.16 230.266 180.68C234.586 177.16 240.126 175.4 246.886 175.4C251.046 175.4 255.086 176.18 259.006 177.74C262.966 179.26 266.486 181.32 269.566 183.92L261.046 195.32C256.766 191.8 252.646 190.04 248.686 190.04C246.806 190.04 245.286 190.42 244.126 191.18C243.006 191.94 242.446 192.98 242.446 194.3C242.446 197.34 245.346 199.46 251.146 200.66C265.106 203.54 272.086 210.3 272.086 220.94C272.086 226.58 269.806 231.24 265.246 234.92C260.726 238.6 254.806 240.44 247.486 240.44C242.246 240.44 237.346 239.54 232.786 237.74C228.226 235.9 224.486 233.36 221.566 230.12Z" fill="#0023FC"/>
<path d="M283.613 224.42C280.613 219.42 279.113 213.92 279.113 207.92C279.113 201.92 280.613 196.44 283.613 191.48C286.653 186.48 290.833 182.56 296.153 179.72C301.473 176.84 307.393 175.4 313.913 175.4C320.433 175.4 326.353 176.84 331.673 179.72C336.993 182.56 341.153 186.48 344.153 191.48C347.193 196.44 348.713 201.92 348.713 207.92C348.713 213.92 347.193 219.42 344.153 224.42C341.153 229.38 336.993 233.3 331.673 236.18C326.353 239.02 320.433 240.44 313.913 240.44C307.393 240.44 301.473 239.02 296.153 236.18C290.833 233.3 286.653 229.38 283.613 224.42ZM302.753 196.82C299.753 199.82 298.253 203.52 298.253 207.92C298.253 212.32 299.753 216.02 302.753 219.02C305.753 222.02 309.473 223.52 313.913 223.52C318.353 223.52 322.073 222.02 325.073 219.02C328.073 216.02 329.573 212.32 329.573 207.92C329.573 203.52 328.073 199.82 325.073 196.82C322.073 193.82 318.353 192.32 313.913 192.32C309.473 192.32 305.753 193.82 302.753 196.82Z" fill="#0023FC"/>
<path d="M379.208 199.34V239H359.888V176.84H379.208V183.26C381.088 180.86 383.468 178.96 386.348 177.56C389.268 176.12 392.328 175.4 395.528 175.4C402.608 175.4 408.428 177.72 412.988 182.36C417.588 186.96 419.888 192.86 419.888 200.06V239H400.568V202.64C400.568 199.8 399.628 197.38 397.748 195.38C395.908 193.34 393.388 192.32 390.188 192.32C388.028 192.32 385.948 193 383.948 194.36C381.948 195.72 380.368 197.38 379.208 199.34Z" fill="#0023FC"/>
<path d="M476.073 240.44C467.633 240.44 459.933 238.54 452.973 234.74C446.053 230.9 440.613 225.66 436.653 219.02C432.693 212.38 430.713 205.04 430.713 197C430.713 188.96 432.693 181.62 436.653 174.98C440.613 168.34 446.053 163.12 452.973 159.32C459.933 155.48 467.633 153.56 476.073 153.56C487.273 153.56 497.073 156.9 505.473 163.58L495.393 178.22C489.153 173.3 482.713 170.84 476.073 170.84C468.913 170.84 462.893 173.34 458.013 178.34C453.173 183.34 450.753 189.56 450.753 197C450.753 204.44 453.173 210.66 458.013 215.66C462.893 220.66 468.913 223.16 476.073 223.16C479.713 223.16 483.253 222.42 486.693 220.94C490.173 219.46 493.293 217.5 496.053 215.06L506.553 229.58C498.073 236.82 487.913 240.44 476.073 240.44Z" fill="#0023FC"/>
<path d="M537.06 199.34V239H517.74V151.4H537.06V183.26C538.94 180.86 541.32 178.96 544.2 177.56C547.12 176.12 550.18 175.4 553.38 175.4C560.46 175.4 566.28 177.72 570.84 182.36C575.44 186.96 577.74 192.86 577.74 200.06V239H558.42V202.64C558.42 199.8 557.48 197.38 555.6 195.38C553.76 193.34 551.24 192.32 548.04 192.32C545.88 192.32 543.8 193 541.8 194.36C539.8 195.72 538.22 197.38 537.06 199.34Z" fill="#0023FC"/>
<path d="M591.745 239V176.84H611.065V239H591.745ZM593.545 168.08C591.425 166.04 590.365 163.54 590.365 160.58C590.365 157.62 591.425 155.14 593.545 153.14C595.665 151.1 598.285 150.08 601.405 150.08C604.525 150.08 607.145 151.1 609.265 153.14C611.385 155.14 612.445 157.62 612.445 160.58C612.445 163.54 611.385 166.04 609.265 168.08C607.145 170.08 604.525 171.08 601.405 171.08C598.285 171.08 595.665 170.08 593.545 168.08Z" fill="#0023FC"/>
<path d="M657.155 240.44C650.635 240.44 644.715 239.02 639.395 236.18C634.075 233.3 629.895 229.38 626.855 224.42C623.855 219.42 622.355 213.92 622.355 207.92C622.355 201.92 623.855 196.44 626.855 191.48C629.895 186.48 634.075 182.56 639.395 179.72C644.715 176.84 650.635 175.4 657.155 175.4C666.555 175.4 674.575 178.3 681.215 184.1L672.035 198.08C667.235 194.24 662.355 192.32 657.395 192.32C652.955 192.32 649.235 193.82 646.235 196.82C643.235 199.82 641.735 203.52 641.735 207.92C641.735 212.32 643.235 216.02 646.235 219.02C649.235 222.02 652.955 223.52 657.395 223.52C662.515 223.52 667.555 221.4 672.515 217.16L682.835 230.18C679.635 233.42 675.835 235.94 671.435 237.74C667.035 239.54 662.275 240.44 657.155 240.44Z" fill="#0023FC"/>
<path d="M221.672 291H219.208L216.904 284.84H206.664L204.36 291H201.896L210.552 268.6H213.016L221.672 291ZM216.216 282.888L211.784 271.112L207.352 282.888H216.216Z" fill="#0023FC"/>
<path d="M238.467 290.952V288.504C237.709 289.421 236.797 290.131 235.73 290.632C234.674 291.133 233.528 291.384 232.29 291.384C230.69 291.384 229.234 290.989 227.923 290.2C226.621 289.4 225.608 288.339 224.883 287.016C224.168 285.693 223.811 284.259 223.811 282.712C223.811 281.165 224.168 279.731 224.883 278.408C225.608 277.085 226.621 276.029 227.923 275.24C229.234 274.44 230.69 274.04 232.29 274.04C233.528 274.04 234.674 274.291 235.73 274.792C236.797 275.293 237.709 276.003 238.467 276.92V274.424H240.643V290.824C240.643 293.117 239.928 294.957 238.499 296.344C237.069 297.731 235.112 298.424 232.626 298.424C231.133 298.424 229.762 298.131 228.514 297.544C227.277 296.957 226.21 296.157 225.314 295.144L226.755 293.704C228.387 295.592 230.339 296.536 232.611 296.536C234.36 296.536 235.773 296.029 236.85 295.016C237.928 294.003 238.467 292.648 238.467 290.952ZM232.611 289.432C233.88 289.432 235.032 289.107 236.066 288.456C237.112 287.795 237.912 286.92 238.467 285.832V279.624C237.912 278.525 237.112 277.645 236.066 276.984C235.032 276.323 233.88 275.992 232.611 275.992C231.395 275.992 230.275 276.296 229.251 276.904C228.237 277.512 227.443 278.333 226.867 279.368C226.301 280.392 226.018 281.507 226.018 282.712C226.018 283.917 226.301 285.037 226.867 286.072C227.443 287.096 228.237 287.912 229.251 288.52C230.275 289.128 231.395 289.432 232.611 289.432Z" fill="#0023FC"/>
<path d="M246.535 283.352C246.652 285.08 247.324 286.536 248.551 287.72C249.777 288.904 251.292 289.496 253.094 289.496C254.161 289.496 255.169 289.267 256.118 288.808C257.078 288.349 257.91 287.704 258.615 286.872L260.118 288.264C259.286 289.256 258.268 290.024 257.062 290.568C255.857 291.112 254.551 291.384 253.143 291.384C251.425 291.384 249.889 290.995 248.535 290.216C247.18 289.427 246.134 288.376 245.398 287.064C244.673 285.752 244.311 284.301 244.311 282.712C244.311 281.539 244.529 280.419 244.967 279.352C245.404 278.285 245.996 277.363 246.742 276.584C247.5 275.805 248.412 275.187 249.479 274.728C250.556 274.269 251.702 274.04 252.919 274.04C254.497 274.04 255.921 274.413 257.19 275.16C258.47 275.896 259.457 276.893 260.151 278.152C260.855 279.411 261.207 280.792 261.207 282.296C261.207 282.659 261.169 283.011 261.095 283.352H246.535ZM252.919 275.928C251.329 275.928 249.937 276.467 248.742 277.544C247.558 278.621 246.849 279.949 246.615 281.528H258.935C258.753 279.907 258.103 278.568 256.983 277.512C255.873 276.456 254.519 275.928 252.919 275.928Z" fill="#0023FC"/>
<path d="M267.077 280.008V291H264.901V274.424H267.077V277.576C267.749 276.563 268.57 275.72 269.541 275.048C270.511 274.376 271.626 274.04 272.885 274.04C274.794 274.04 276.367 274.664 277.605 275.912C278.842 277.16 279.461 278.744 279.461 280.664V291H277.285V280.792C277.285 279.427 276.831 278.285 275.925 277.368C275.029 276.451 273.887 275.992 272.501 275.992C271.359 275.992 270.33 276.371 269.413 277.128C268.506 277.885 267.727 278.845 267.077 280.008Z" fill="#0023FC"/>
<path d="M291.642 291.384C289.988 291.384 288.484 290.995 287.13 290.216C285.775 289.427 284.719 288.371 283.962 287.048C283.215 285.725 282.842 284.28 282.842 282.712C282.842 281.144 283.215 279.699 283.962 278.376C284.719 277.053 285.775 276.003 287.13 275.224C288.484 274.435 289.988 274.04 291.642 274.04C293.956 274.04 295.951 274.792 297.626 276.296L296.49 278.024C295.05 276.669 293.434 275.992 291.642 275.992C290.426 275.992 289.306 276.296 288.282 276.904C287.268 277.512 286.474 278.333 285.898 279.368C285.332 280.392 285.05 281.507 285.05 282.712C285.05 283.917 285.332 285.037 285.898 286.072C286.474 287.096 287.268 287.912 288.282 288.52C289.306 289.128 290.426 289.432 291.642 289.432C293.551 289.432 295.215 288.696 296.634 287.224L297.93 288.824C297.13 289.635 296.191 290.264 295.114 290.712C294.036 291.16 292.879 291.384 291.642 291.384Z" fill="#0023FC"/>
<path d="M302.222 283.352C302.339 285.08 303.011 286.536 304.238 287.72C305.465 288.904 306.979 289.496 308.782 289.496C309.849 289.496 310.857 289.267 311.806 288.808C312.766 288.349 313.598 287.704 314.302 286.872L315.806 288.264C314.974 289.256 313.955 290.024 312.75 290.568C311.545 291.112 310.238 291.384 308.83 291.384C307.113 291.384 305.577 290.995 304.222 290.216C302.867 289.427 301.822 288.376 301.086 287.064C300.361 285.752 299.998 284.301 299.998 282.712C299.998 281.539 300.217 280.419 300.654 279.352C301.091 278.285 301.683 277.363 302.43 276.584C303.187 275.805 304.099 275.187 305.166 274.728C306.243 274.269 307.39 274.04 308.606 274.04C310.185 274.04 311.609 274.413 312.878 275.16C314.158 275.896 315.145 276.893 315.838 278.152C316.542 279.411 316.894 280.792 316.894 282.296C316.894 282.659 316.857 283.011 316.782 283.352H302.222ZM308.606 275.928C307.017 275.928 305.625 276.467 304.43 277.544C303.246 278.621 302.537 279.949 302.302 281.528H314.622C314.441 279.907 313.79 278.568 312.67 277.512C311.561 276.456 310.206 275.928 308.606 275.928Z" fill="#0023FC"/>
<path d="M330.954 268.6H333.194V291H330.954V268.6Z" fill="#0023FC"/>
<path d="M341.202 279.912V291H339.026V274.424H341.202V277.448C341.799 276.477 342.546 275.667 343.442 275.016C344.338 274.365 345.372 274.04 346.546 274.04C347.868 274.04 349.02 274.392 350.002 275.096C350.994 275.789 351.703 276.717 352.13 277.88C352.791 276.717 353.623 275.789 354.626 275.096C355.639 274.392 356.775 274.04 358.034 274.04C359.847 274.04 361.324 274.648 362.466 275.864C363.607 277.08 364.178 278.616 364.178 280.472V291H362.002V280.6C362.002 279.299 361.607 278.205 360.818 277.32C360.028 276.435 358.999 275.992 357.73 275.992C356.684 275.992 355.735 276.365 354.882 277.112C354.028 277.848 353.292 278.797 352.674 279.96C352.684 280.077 352.69 280.248 352.69 280.472V291H350.514V280.6C350.514 279.299 350.119 278.205 349.33 277.32C348.54 276.435 347.511 275.992 346.242 275.992C344.3 275.992 342.62 277.299 341.202 279.912Z" fill="#0023FC"/>
<path d="M370.921 279.912V291H368.745V274.424H370.921V277.448C371.518 276.477 372.264 275.667 373.16 275.016C374.056 274.365 375.091 274.04 376.264 274.04C377.587 274.04 378.739 274.392 379.72 275.096C380.712 275.789 381.422 276.717 381.849 277.88C382.51 276.717 383.342 275.789 384.345 275.096C385.358 274.392 386.494 274.04 387.753 274.04C389.566 274.04 391.043 274.648 392.185 275.864C393.326 277.08 393.897 278.616 393.897 280.472V291H391.72V280.6C391.72 279.299 391.326 278.205 390.536 277.32C389.747 276.435 388.718 275.992 387.448 275.992C386.403 275.992 385.454 276.365 384.6 277.112C383.747 277.848 383.011 278.797 382.392 279.96C382.403 280.077 382.409 280.248 382.409 280.472V291H380.233V280.6C380.233 279.299 379.838 278.205 379.048 277.32C378.259 276.435 377.23 275.992 375.961 275.992C374.019 275.992 372.339 277.299 370.921 279.912Z" fill="#0023FC"/>
<path d="M402.719 288.52C403.743 289.128 404.863 289.432 406.079 289.432C407.295 289.432 408.41 289.128 409.423 288.52C410.447 287.912 411.242 287.096 411.807 286.072C412.383 285.037 412.671 283.917 412.671 282.712C412.671 281.507 412.383 280.392 411.807 279.368C411.242 278.333 410.447 277.512 409.423 276.904C408.41 276.296 407.295 275.992 406.079 275.992C404.863 275.992 403.743 276.296 402.719 276.904C401.706 277.512 400.911 278.333 400.335 279.368C399.77 280.392 399.487 281.507 399.487 282.712C399.487 283.917 399.77 285.037 400.335 286.072C400.911 287.096 401.706 287.912 402.719 288.52ZM401.567 275.224C402.922 274.435 404.426 274.04 406.079 274.04C407.733 274.04 409.237 274.435 410.591 275.224C411.946 276.003 412.997 277.053 413.743 278.376C414.501 279.699 414.879 281.144 414.879 282.712C414.879 284.28 414.501 285.725 413.743 287.048C412.997 288.371 411.946 289.427 410.591 290.216C409.237 290.995 407.733 291.384 406.079 291.384C404.426 291.384 402.922 290.995 401.567 290.216C400.213 289.427 399.157 288.371 398.399 287.048C397.653 285.725 397.279 284.28 397.279 282.712C397.279 281.144 397.653 279.699 398.399 278.376C399.157 277.053 400.213 276.003 401.567 275.224Z" fill="#0023FC"/>
<path d="M426.589 289.432C427.805 289.432 428.92 289.128 429.933 288.52C430.957 287.912 431.752 287.096 432.317 286.072C432.893 285.037 433.181 283.917 433.181 282.712C433.181 281.507 432.893 280.392 432.317 279.368C431.752 278.333 430.957 277.512 429.933 276.904C428.92 276.296 427.805 275.992 426.589 275.992C425.32 275.992 424.162 276.323 423.117 276.984C422.082 277.645 421.288 278.525 420.733 279.624V285.832C421.288 286.92 422.082 287.795 423.117 288.456C424.162 289.107 425.32 289.432 426.589 289.432ZM426.909 274.04C428.509 274.04 429.96 274.44 431.261 275.24C432.573 276.029 433.586 277.085 434.301 278.408C435.026 279.731 435.389 281.165 435.389 282.712C435.389 284.259 435.026 285.693 434.301 287.016C433.586 288.339 432.573 289.4 431.261 290.2C429.96 290.989 428.509 291.384 426.909 291.384C425.672 291.384 424.52 291.133 423.453 290.632C422.397 290.131 421.49 289.421 420.733 288.504V291H418.557V267.64H420.733V276.92C421.49 276.003 422.397 275.293 423.453 274.792C424.52 274.291 425.672 274.04 426.909 274.04Z" fill="#0023FC"/>
<path d="M439.665 291V267.64H441.841V291H439.665Z" fill="#0023FC"/>
<path d="M447.915 291V274.424H450.091V291H447.915ZM447.899 270.776C447.6 270.477 447.451 270.109 447.451 269.672C447.451 269.235 447.6 268.867 447.899 268.568C448.198 268.269 448.566 268.12 449.003 268.12C449.44 268.12 449.808 268.269 450.107 268.568C450.406 268.867 450.555 269.235 450.555 269.672C450.555 270.109 450.406 270.477 450.107 270.776C449.808 271.075 449.44 271.224 449.003 271.224C448.566 271.224 448.198 271.075 447.899 270.776Z" fill="#0023FC"/>
<path d="M456.597 283.352C456.714 285.08 457.386 286.536 458.613 287.72C459.84 288.904 461.354 289.496 463.157 289.496C464.224 289.496 465.232 289.267 466.181 288.808C467.141 288.349 467.973 287.704 468.677 286.872L470.181 288.264C469.349 289.256 468.33 290.024 467.125 290.568C465.92 291.112 464.613 291.384 463.205 291.384C461.488 291.384 459.952 290.995 458.597 290.216C457.242 289.427 456.197 288.376 455.461 287.064C454.736 285.752 454.373 284.301 454.373 282.712C454.373 281.539 454.592 280.419 455.029 279.352C455.466 278.285 456.058 277.363 456.805 276.584C457.562 275.805 458.474 275.187 459.541 274.728C460.618 274.269 461.765 274.04 462.981 274.04C464.56 274.04 465.984 274.413 467.253 275.16C468.533 275.896 469.52 276.893 470.213 278.152C470.917 279.411 471.269 280.792 471.269 282.296C471.269 282.659 471.232 283.011 471.157 283.352H456.597ZM462.981 275.928C461.392 275.928 460 276.467 458.805 277.544C457.621 278.621 456.912 279.949 456.677 281.528H468.997C468.816 279.907 468.165 278.568 467.045 277.512C465.936 276.456 464.581 275.928 462.981 275.928Z" fill="#0023FC"/>
<path d="M482.307 275.992C481.347 275.992 480.409 276.403 479.491 277.224C478.574 278.045 477.79 279.085 477.139 280.344V291H474.963V274.424H477.139V277.752C477.854 276.685 478.67 275.8 479.587 275.096C480.515 274.392 481.513 274.04 482.579 274.04C483.145 274.04 483.678 274.147 484.179 274.36L483.987 276.312C483.433 276.099 482.873 275.992 482.307 275.992Z" fill="#0023FC"/>
<path d="M519.278 1L668 152H652.471L514.5 10.9682L376.529 152H361L509.722 1H519.278Z" fill="#0023FC"/>
<path d="M494 77H512V95H494V77Z" fill="#0023FC"/>
<path d="M517 77H535V95H517V77Z" fill="#0023FC"/>
<path d="M494 100H512V118H494V100Z" fill="#0023FC"/>
<path d="M517 100H535V118H517V100Z" fill="#0023FC"/>
<path d="M0 285.5H183M503 285.5L686 285.5M59.62 214.52H45.94L28.3 183.32V239H9.82V155H31.42L52.78 192.92L74.14 155H95.74V239H77.26V183.32L59.62 214.52ZM143.054 223.52C146.214 223.52 149.054 222.74 151.574 221.18C154.094 219.58 155.974 217.46 157.214 214.82V201.08C155.974 198.44 154.074 196.32 151.514 194.72C148.994 193.12 146.174 192.32 143.054 192.32C138.614 192.32 134.894 193.82 131.894 196.82C128.894 199.82 127.394 203.52 127.394 207.92C127.394 212.32 128.894 216.02 131.894 219.02C134.894 222.02 138.614 223.52 143.054 223.52ZM157.214 239V233.24C154.814 235.52 151.974 237.3 148.694 238.58C145.454 239.82 142.054 240.44 138.494 240.44C132.854 240.44 127.714 239 123.074 236.12C118.434 233.2 114.794 229.26 112.154 224.3C109.554 219.3 108.254 213.84 108.254 207.92C108.254 202 109.554 196.56 112.154 191.6C114.794 186.6 118.434 182.66 123.074 179.78C127.714 176.86 132.854 175.4 138.494 175.4C142.054 175.4 145.454 176.04 148.694 177.32C151.974 178.56 154.814 180.32 157.214 182.6V176.84H176.174V239H157.214ZM191.315 239V176.84H210.635V239H191.315ZM193.115 168.08C190.995 166.04 189.935 163.54 189.935 160.58C189.935 157.62 190.995 155.14 193.115 153.14C195.235 151.1 197.855 150.08 200.975 150.08C204.095 150.08 206.715 151.1 208.835 153.14C210.955 155.14 212.015 157.62 212.015 160.58C212.015 163.54 210.955 166.04 208.835 168.08C206.715 170.08 204.095 171.08 200.975 171.08C197.855 171.08 195.235 170.08 193.115 168.08ZM221.566 230.12L230.386 218.72C232.346 220.88 234.686 222.6 237.406 223.88C240.126 225.16 242.966 225.8 245.926 225.8C248.286 225.8 250.126 225.36 251.446 224.48C252.806 223.56 253.486 222.34 253.486 220.82C253.486 219.26 252.766 217.98 251.326 216.98C249.886 215.94 247.426 215.06 243.946 214.34C237.426 212.98 232.446 210.56 229.006 207.08C225.566 203.6 223.846 199.26 223.846 194.06C223.846 188.62 225.986 184.16 230.266 180.68C234.586 177.16 240.126 175.4 246.886 175.4C251.046 175.4 255.086 176.18 259.006 177.74C262.966 179.26 266.486 181.32 269.566 183.92L261.046 195.32C256.766 191.8 252.646 190.04 248.686 190.04C246.806 190.04 245.286 190.42 244.126 191.18C243.006 191.94 242.446 192.98 242.446 194.3C242.446 197.34 245.346 199.46 251.146 200.66C265.106 203.54 272.086 210.3 272.086 220.94C272.086 226.58 269.806 231.24 265.246 234.92C260.726 238.6 254.806 240.44 247.486 240.44C242.246 240.44 237.346 239.54 232.786 237.74C228.226 235.9 224.486 233.36 221.566 230.12ZM283.613 224.42C280.613 219.42 279.113 213.92 279.113 207.92C279.113 201.92 280.613 196.44 283.613 191.48C286.653 186.48 290.833 182.56 296.153 179.72C301.473 176.84 307.393 175.4 313.913 175.4C320.433 175.4 326.353 176.84 331.673 179.72C336.993 182.56 341.153 186.48 344.153 191.48C347.193 196.44 348.713 201.92 348.713 207.92C348.713 213.92 347.193 219.42 344.153 224.42C341.153 229.38 336.993 233.3 331.673 236.18C326.353 239.02 320.433 240.44 313.913 240.44C307.393 240.44 301.473 239.02 296.153 236.18C290.833 233.3 286.653 229.38 283.613 224.42ZM302.753 196.82C299.753 199.82 298.253 203.52 298.253 207.92C298.253 212.32 299.753 216.02 302.753 219.02C305.753 222.02 309.473 223.52 313.913 223.52C318.353 223.52 322.073 222.02 325.073 219.02C328.073 216.02 329.573 212.32 329.573 207.92C329.573 203.52 328.073 199.82 325.073 196.82C322.073 193.82 318.353 192.32 313.913 192.32C309.473 192.32 305.753 193.82 302.753 196.82ZM379.208 199.34V239H359.888V176.84H379.208V183.26C381.088 180.86 383.468 178.96 386.348 177.56C389.268 176.12 392.328 175.4 395.528 175.4C402.608 175.4 408.428 177.72 412.988 182.36C417.588 186.96 419.888 192.86 419.888 200.06V239H400.568V202.64C400.568 199.8 399.628 197.38 397.748 195.38C395.908 193.34 393.388 192.32 390.188 192.32C388.028 192.32 385.948 193 383.948 194.36C381.948 195.72 380.368 197.38 379.208 199.34ZM476.073 240.44C467.633 240.44 459.933 238.54 452.973 234.74C446.053 230.9 440.613 225.66 436.653 219.02C432.693 212.38 430.713 205.04 430.713 197C430.713 188.96 432.693 181.62 436.653 174.98C440.613 168.34 446.053 163.12 452.973 159.32C459.933 155.48 467.633 153.56 476.073 153.56C487.273 153.56 497.073 156.9 505.473 163.58L495.393 178.22C489.153 173.3 482.713 170.84 476.073 170.84C468.913 170.84 462.893 173.34 458.013 178.34C453.173 183.34 450.753 189.56 450.753 197C450.753 204.44 453.173 210.66 458.013 215.66C462.893 220.66 468.913 223.16 476.073 223.16C479.713 223.16 483.253 222.42 486.693 220.94C490.173 219.46 493.293 217.5 496.053 215.06L506.553 229.58C498.073 236.82 487.913 240.44 476.073 240.44ZM537.06 199.34V239H517.74V151.4H537.06V183.26C538.94 180.86 541.32 178.96 544.2 177.56C547.12 176.12 550.18 175.4 553.38 175.4C560.46 175.4 566.28 177.72 570.84 182.36C575.44 186.96 577.74 192.86 577.74 200.06V239H558.42V202.64C558.42 199.8 557.48 197.38 555.6 195.38C553.76 193.34 551.24 192.32 548.04 192.32C545.88 192.32 543.8 193 541.8 194.36C539.8 195.72 538.22 197.38 537.06 199.34ZM591.745 239V176.84H611.065V239H591.745ZM593.545 168.08C591.425 166.04 590.365 163.54 590.365 160.58C590.365 157.62 591.425 155.14 593.545 153.14C595.665 151.1 598.285 150.08 601.405 150.08C604.525 150.08 607.145 151.1 609.265 153.14C611.385 155.14 612.445 157.62 612.445 160.58C612.445 163.54 611.385 166.04 609.265 168.08C607.145 170.08 604.525 171.08 601.405 171.08C598.285 171.08 595.665 170.08 593.545 168.08ZM657.155 240.44C650.635 240.44 644.715 239.02 639.395 236.18C634.075 233.3 629.895 229.38 626.855 224.42C623.855 219.42 622.355 213.92 622.355 207.92C622.355 201.92 623.855 196.44 626.855 191.48C629.895 186.48 634.075 182.56 639.395 179.72C644.715 176.84 650.635 175.4 657.155 175.4C666.555 175.4 674.575 178.3 681.215 184.1L672.035 198.08C667.235 194.24 662.355 192.32 657.395 192.32C652.955 192.32 649.235 193.82 646.235 196.82C643.235 199.82 641.735 203.52 641.735 207.92C641.735 212.32 643.235 216.02 646.235 219.02C649.235 222.02 652.955 223.52 657.395 223.52C662.515 223.52 667.555 221.4 672.515 217.16L682.835 230.18C679.635 233.42 675.835 235.94 671.435 237.74C667.035 239.54 662.275 240.44 657.155 240.44ZM221.672 291H219.208L216.904 284.84H206.664L204.36 291H201.896L210.552 268.6H213.016L221.672 291ZM216.216 282.888L211.784 271.112L207.352 282.888H216.216ZM238.467 290.952V288.504C237.709 289.421 236.797 290.131 235.73 290.632C234.674 291.133 233.528 291.384 232.29 291.384C230.69 291.384 229.235 290.989 227.923 290.2C226.621 289.4 225.608 288.339 224.883 287.016C224.168 285.693 223.811 284.259 223.811 282.712C223.811 281.165 224.168 279.731 224.883 278.408C225.608 277.085 226.621 276.029 227.923 275.24C229.235 274.44 230.69 274.04 232.29 274.04C233.528 274.04 234.674 274.291 235.73 274.792C236.797 275.293 237.709 276.003 238.467 276.92V274.424H240.643V290.824C240.643 293.117 239.928 294.957 238.499 296.344C237.069 297.731 235.112 298.424 232.626 298.424C231.133 298.424 229.762 298.131 228.514 297.544C227.277 296.957 226.21 296.157 225.314 295.144L226.755 293.704C228.387 295.592 230.339 296.536 232.611 296.536C234.36 296.536 235.773 296.029 236.85 295.016C237.928 294.003 238.467 292.648 238.467 290.952ZM232.611 289.432C233.88 289.432 235.032 289.107 236.066 288.456C237.112 287.795 237.912 286.92 238.467 285.832V279.624C237.912 278.525 237.112 277.645 236.066 276.984C235.032 276.323 233.88 275.992 232.611 275.992C231.395 275.992 230.275 276.296 229.251 276.904C228.237 277.512 227.443 278.333 226.867 279.368C226.301 280.392 226.018 281.507 226.018 282.712C226.018 283.917 226.301 285.037 226.867 286.072C227.443 287.096 228.237 287.912 229.251 288.52C230.275 289.128 231.395 289.432 232.611 289.432ZM246.535 283.352C246.652 285.08 247.324 286.536 248.551 287.72C249.777 288.904 251.292 289.496 253.094 289.496C254.161 289.496 255.169 289.267 256.118 288.808C257.078 288.349 257.911 287.704 258.615 286.872L260.118 288.264C259.286 289.256 258.268 290.024 257.062 290.568C255.857 291.112 254.551 291.384 253.143 291.384C251.425 291.384 249.889 290.995 248.535 290.216C247.18 289.427 246.134 288.376 245.398 287.064C244.673 285.752 244.311 284.301 244.311 282.712C244.311 281.539 244.529 280.419 244.967 279.352C245.404 278.285 245.996 277.363 246.742 276.584C247.5 275.805 248.412 275.187 249.479 274.728C250.556 274.269 251.703 274.04 252.919 274.04C254.497 274.04 255.921 274.413 257.19 275.16C258.47 275.896 259.457 276.893 260.151 278.152C260.855 279.411 261.207 280.792 261.207 282.296C261.207 282.659 261.169 283.011 261.095 283.352H246.535ZM252.919 275.928C251.329 275.928 249.937 276.467 248.742 277.544C247.558 278.621 246.849 279.949 246.615 281.528H258.935C258.753 279.907 258.103 278.568 256.983 277.512C255.873 276.456 254.519 275.928 252.919 275.928ZM267.077 280.008V291H264.901V274.424H267.077V277.576C267.749 276.563 268.57 275.72 269.541 275.048C270.511 274.376 271.626 274.04 272.885 274.04C274.794 274.04 276.367 274.664 277.605 275.912C278.842 277.16 279.461 278.744 279.461 280.664V291H277.285V280.792C277.285 279.427 276.831 278.285 275.925 277.368C275.029 276.451 273.887 275.992 272.501 275.992C271.359 275.992 270.33 276.371 269.413 277.128C268.506 277.885 267.727 278.845 267.077 280.008ZM291.642 291.384C289.988 291.384 288.484 290.995 287.13 290.216C285.775 289.427 284.719 288.371 283.962 287.048C283.215 285.725 282.842 284.28 282.842 282.712C282.842 281.144 283.215 279.699 283.962 278.376C284.719 277.053 285.775 276.003 287.13 275.224C288.484 274.435 289.988 274.04 291.642 274.04C293.956 274.04 295.951 274.792 297.626 276.296L296.49 278.024C295.05 276.669 293.434 275.992 291.642 275.992C290.426 275.992 289.306 276.296 288.282 276.904C287.268 277.512 286.474 278.333 285.898 279.368C285.332 280.392 285.05 281.507 285.05 282.712C285.05 283.917 285.332 285.037 285.898 286.072C286.474 287.096 287.268 287.912 288.282 288.52C289.306 289.128 290.426 289.432 291.642 289.432C293.551 289.432 295.215 288.696 296.634 287.224L297.93 288.824C297.13 289.635 296.191 290.264 295.114 290.712C294.036 291.16 292.879 291.384 291.642 291.384ZM302.222 283.352C302.339 285.08 303.011 286.536 304.238 287.72C305.465 288.904 306.979 289.496 308.782 289.496C309.849 289.496 310.857 289.267 311.806 288.808C312.766 288.349 313.598 287.704 314.302 286.872L315.806 288.264C314.974 289.256 313.955 290.024 312.75 290.568C311.545 291.112 310.238 291.384 308.83 291.384C307.113 291.384 305.577 290.995 304.222 290.216C302.867 289.427 301.822 288.376 301.086 287.064C300.361 285.752 299.998 284.301 299.998 282.712C299.998 281.539 300.217 280.419 300.654 279.352C301.091 278.285 301.683 277.363 302.43 276.584C303.187 275.805 304.099 275.187 305.166 274.728C306.243 274.269 307.39 274.04 308.606 274.04C310.185 274.04 311.609 274.413 312.878 275.16C314.158 275.896 315.145 276.893 315.838 278.152C316.542 279.411 316.894 280.792 316.894 282.296C316.894 282.659 316.857 283.011 316.782 283.352H302.222ZM308.606 275.928C307.017 275.928 305.625 276.467 304.43 277.544C303.246 278.621 302.537 279.949 302.302 281.528H314.622C314.441 279.907 313.79 278.568 312.67 277.512C311.561 276.456 310.206 275.928 308.606 275.928ZM330.954 268.6H333.194V291H330.954V268.6ZM341.202 279.912V291H339.026V274.424H341.202V277.448C341.799 276.477 342.546 275.667 343.442 275.016C344.338 274.365 345.372 274.04 346.546 274.04C347.868 274.04 349.02 274.392 350.002 275.096C350.994 275.789 351.703 276.717 352.13 277.88C352.791 276.717 353.623 275.789 354.626 275.096C355.639 274.392 356.775 274.04 358.034 274.04C359.847 274.04 361.324 274.648 362.466 275.864C363.607 277.08 364.178 278.616 364.178 280.472V291H362.002V280.6C362.002 279.299 361.607 278.205 360.818 277.32C360.028 276.435 358.999 275.992 357.73 275.992C356.684 275.992 355.735 276.365 354.882 277.112C354.028 277.848 353.292 278.797 352.674 279.96C352.684 280.077 352.69 280.248 352.69 280.472V291H350.514V280.6C350.514 279.299 350.119 278.205 349.33 277.32C348.54 276.435 347.511 275.992 346.242 275.992C344.3 275.992 342.62 277.299 341.202 279.912ZM370.921 279.912V291H368.745V274.424H370.921V277.448C371.518 276.477 372.264 275.667 373.16 275.016C374.056 274.365 375.091 274.04 376.264 274.04C377.587 274.04 378.739 274.392 379.72 275.096C380.712 275.789 381.422 276.717 381.849 277.88C382.51 276.717 383.342 275.789 384.345 275.096C385.358 274.392 386.494 274.04 387.753 274.04C389.566 274.04 391.043 274.648 392.185 275.864C393.326 277.08 393.897 278.616 393.897 280.472V291H391.72V280.6C391.72 279.299 391.326 278.205 390.536 277.32C389.747 276.435 388.718 275.992 387.448 275.992C386.403 275.992 385.454 276.365 384.6 277.112C383.747 277.848 383.011 278.797 382.392 279.96C382.403 280.077 382.409 280.248 382.409 280.472V291H380.233V280.6C380.233 279.299 379.838 278.205 379.048 277.32C378.259 276.435 377.23 275.992 375.961 275.992C374.019 275.992 372.339 277.299 370.921 279.912ZM402.719 288.52C403.743 289.128 404.863 289.432 406.079 289.432C407.295 289.432 408.41 289.128 409.423 288.52C410.447 287.912 411.242 287.096 411.807 286.072C412.383 285.037 412.671 283.917 412.671 282.712C412.671 281.507 412.383 280.392 411.807 279.368C411.242 278.333 410.447 277.512 409.423 276.904C408.41 276.296 407.295 275.992 406.079 275.992C404.863 275.992 403.743 276.296 402.719 276.904C401.706 277.512 400.911 278.333 400.335 279.368C399.77 280.392 399.487 281.507 399.487 282.712C399.487 283.917 399.77 285.037 400.335 286.072C400.911 287.096 401.706 287.912 402.719 288.52ZM401.567 275.224C402.922 274.435 404.426 274.04 406.079 274.04C407.733 274.04 409.237 274.435 410.591 275.224C411.946 276.003 412.997 277.053 413.743 278.376C414.501 279.699 414.879 281.144 414.879 282.712C414.879 284.28 414.501 285.725 413.743 287.048C412.997 288.371 411.946 289.427 410.591 290.216C409.237 290.995 407.733 291.384 406.079 291.384C404.426 291.384 402.922 290.995 401.567 290.216C400.213 289.427 399.157 288.371 398.399 287.048C397.653 285.725 397.279 284.28 397.279 282.712C397.279 281.144 397.653 279.699 398.399 278.376C399.157 277.053 400.213 276.003 401.567 275.224ZM426.589 289.432C427.805 289.432 428.92 289.128 429.933 288.52C430.957 287.912 431.752 287.096 432.317 286.072C432.893 285.037 433.181 283.917 433.181 282.712C433.181 281.507 432.893 280.392 432.317 279.368C431.752 278.333 430.957 277.512 429.933 276.904C428.92 276.296 427.805 275.992 426.589 275.992C425.32 275.992 424.162 276.323 423.117 276.984C422.082 277.645 421.288 278.525 420.733 279.624V285.832C421.288 286.92 422.082 287.795 423.117 288.456C424.162 289.107 425.32 289.432 426.589 289.432ZM426.909 274.04C428.509 274.04 429.96 274.44 431.261 275.24C432.573 276.029 433.586 277.085 434.301 278.408C435.026 279.731 435.389 281.165 435.389 282.712C435.389 284.259 435.026 285.693 434.301 287.016C433.586 288.339 432.573 289.4 431.261 290.2C429.96 290.989 428.509 291.384 426.909 291.384C425.672 291.384 424.52 291.133 423.453 290.632C422.397 290.131 421.49 289.421 420.733 288.504V291H418.557V267.64H420.733V276.92C421.49 276.003 422.397 275.293 423.453 274.792C424.52 274.291 425.672 274.04 426.909 274.04ZM439.665 291V267.64H441.841V291H439.665ZM447.915 291V274.424H450.091V291H447.915ZM447.899 270.776C447.6 270.477 447.451 270.109 447.451 269.672C447.451 269.235 447.6 268.867 447.899 268.568C448.198 268.269 448.566 268.12 449.003 268.12C449.44 268.12 449.808 268.269 450.107 268.568C450.406 268.867 450.555 269.235 450.555 269.672C450.555 270.109 450.406 270.477 450.107 270.776C449.808 271.075 449.44 271.224 449.003 271.224C448.566 271.224 448.198 271.075 447.899 270.776ZM456.597 283.352C456.714 285.08 457.386 286.536 458.613 287.72C459.84 288.904 461.354 289.496 463.157 289.496C464.224 289.496 465.232 289.267 466.181 288.808C467.141 288.349 467.973 287.704 468.677 286.872L470.181 288.264C469.349 289.256 468.33 290.024 467.125 290.568C465.92 291.112 464.613 291.384 463.205 291.384C461.488 291.384 459.952 290.995 458.597 290.216C457.242 289.427 456.197 288.376 455.461 287.064C454.736 285.752 454.373 284.301 454.373 282.712C454.373 281.539 454.592 280.419 455.029 279.352C455.466 278.285 456.058 277.363 456.805 276.584C457.562 275.805 458.474 275.187 459.541 274.728C460.618 274.269 461.765 274.04 462.981 274.04C464.56 274.04 465.984 274.413 467.253 275.16C468.533 275.896 469.52 276.893 470.213 278.152C470.917 279.411 471.269 280.792 471.269 282.296C471.269 282.659 471.232 283.011 471.157 283.352H456.597ZM462.981 275.928C461.392 275.928 460 276.467 458.805 277.544C457.621 278.621 456.912 279.949 456.677 281.528H468.997C468.816 279.907 468.165 278.568 467.045 277.512C465.936 276.456 464.581 275.928 462.981 275.928ZM482.307 275.992C481.347 275.992 480.409 276.403 479.491 277.224C478.574 278.045 477.79 279.085 477.139 280.344V291H474.963V274.424H477.139V277.752C477.854 276.685 478.67 275.8 479.587 275.096C480.515 274.392 481.513 274.04 482.579 274.04C483.145 274.04 483.678 274.147 484.179 274.36L483.987 276.312C483.433 276.099 482.873 275.992 482.307 275.992ZM519.278 1L668 152H652.471L514.5 10.9682L376.529 152H361L509.722 1H519.278ZM494 77H512V95H494V77ZM517 77H535V95H517V77ZM494 100H512V118H494V100ZM517 100H535V118H517V100Z" stroke="#0023FC"/>
</svg>